<?xml version="1.0" encoding="utf-8"?>
<!-- Generator: Adobe Illustrator 23.0.0, SVG Export Plug-In . SVG Version: 6.00 Build 0)  -->
<svg version="1.1" id="Capa_1" xmlns="http://www.w3.org/2000/svg" xmlns:xlink="http://www.w3.org/1999/xlink" x="0px" y="0px"
	 viewBox="0 0 35 35" style="enable-background:new 0 0 35 35;" xml:space="preserve">
<style type="text/css">
	.st0{fill:none;}
	.st1{fill:#D1C4E9;}
</style>
<path class="st0" d="M0,0h35v35H0V0z"/>
<path class="st1" d="M20.4,8.8v-3h-5.8v2.9h5.8V8.8z M5.8,13.1v13.1c0,0.8,0.7,1.5,1.5,1.5h20.4c0.8,0,1.5-0.7,1.5-1.5V13.1
	c0-0.8-0.7-1.5-1.5-1.5H7.3C6.5,11.7,5.8,12.3,5.8,13.1z M29.2,8.8c1.6,0,2.9,1.3,2.9,2.9v16c0,1.6-1.3,2.9-2.9,2.9H5.8
	c-1.6,0-2.9-1.3-2.9-2.9v-16c0-1.6,1.3-2.9,2.9-2.9h5.8v-3c0-1.6,1.3-2.9,2.9-2.9h5.8c1.6,0,2.9,1.3,2.9,2.9v2.9h6
	C29.2,8.7,29.2,8.8,29.2,8.8z"/>
</svg>
