<?xml version="1.0" encoding="utf-8"?>
<!-- Generator: Adobe Illustrator 23.0.0, SVG Export Plug-In . SVG Version: 6.00 Build 0)  -->
<svg version="1.1" id="Capa_1" xmlns="http://www.w3.org/2000/svg" xmlns:xlink="http://www.w3.org/1999/xlink" x="0px" y="0px"
	 viewBox="0 0 1000 1000" style="enable-background:new 0 0 1000 1000;" xml:space="preserve">
<style type="text/css">
	.st0{fill:#D1C4E9;}
</style>
<path class="st0" d="M49.42,221.95c6.78-19.08,12.62-38.36,27.32-53.69c19.56-20.38,43.06-31.77,70.98-31.81
	c184.72-0.32,369.44-0.16,554.13-0.14c3.64,0,7.27,0.36,10.91,0.54c0.84,1.13,1.68,2.28,2.53,3.41c-2.53,1.31-5.24,2.39-7.57,3.99
	c-24.4,16.91-49.03,33.54-72.99,51.07c-9.39,6.89-19.01,9.12-30.36,9.09c-145.59-0.25-291.19-0.16-436.76-0.16
	c-4.9,0-9.8-0.18-14.65,0.3c-22.51,2.14-32.08,12.57-32.08,35.13c-0.05,206.91-0.05,413.82,0,620.72
	c0,24.39,10.39,34.97,35.03,34.97c206.53,0.11,413.07,0.09,619.6,0c23.44-0.02,35.4-11.37,35.92-35.3
	c0.74-34.22,0.41-68.45,0.33-102.7c-0.25-118.11-0.74-236.24-0.49-354.35c0.02-8.69,3.36-18.61,8.27-25.88
	c16.77-24.94,34.9-48.97,52.56-73.31c1.47-2.03,3.41-3.72,6.97-7.57c0.47,6.21,1.04,10.09,1.04,13.97
	c0.05,183.59-0.11,367.18,0.14,550.74c0.05,37.58-13.46,68.4-45.69,87.55c-15.92,9.46-35.65,12.46-53.67,18.37
	c-210.71,0-421.43,0-632.14,0c-2.17-0.54-4.31-1.31-6.51-1.58c-41.21-5.08-69.97-26.67-85.54-65.15c-3.34-8.24-4.9-17.2-7.27-25.83
	C49.42,656.89,49.42,439.42,49.42,221.95z"/>
<path class="st0" d="M936.66,63.92c14.09,9.64,16.36,15.79,11.78,32.34c-10.79,38.96-32.01,72.79-53.35,106.4
	c-71.65,112.84-154.1,217.85-236.52,322.85c-20.89,26.62-40.94,53.97-62.87,79.69c-25.89,30.36-58.61,50.36-98.71,56.35
	c-28.49,4.24-54.43-2.01-77.21-20.3c-15.53-12.46-11.97-16.55-30.18,1.55c-18.94,18.83-38.11,37.44-57.19,56.12
	c-2.42,2.37-4.47,5.72-7.38,6.84c-4.26,1.65-9.17,1.71-13.79,2.46c0.49-4.78-0.46-10.47,1.82-14.16c3.68-5.94,9.34-10.7,14.41-15.76
	c126.72-126.47,253.47-252.93,380.16-379.39c4.97-4.94,9.61-10.2,14.43-15.33c-0.63-0.7-1.28-1.4-1.92-2.09
	c-14.38,12.21-28.92,24.25-43.14,36.64c-93.53,81.54-187.02,163.18-280.5,244.77c-7.09,6.19-14.33,12.19-21.06,18.76
	c-6.3,6.16-10.31,5.32-14.7-2.26c-17.23-29.82-17.29-60.78-6.62-92.42c12.42-36.73,37.45-63.92,67.62-86.72
	c88.21-66.62,175.9-133.96,265.25-198.99c58.61-42.65,118.84-83.38,184.02-115.77c17.41-8.65,36.19-14.52,54.34-21.65
	C929.14,63.92,932.89,63.92,936.66,63.92z"/>
</svg>
