<?xml version="1.0" encoding="utf-8"?>
<!-- Generator: Adobe Illustrator 23.0.0, SVG Export Plug-In . SVG Version: 6.00 Build 0)  -->
<svg version="1.1" id="Capa_1" xmlns="http://www.w3.org/2000/svg" xmlns:xlink="http://www.w3.org/1999/xlink" x="0px" y="0px"
	 viewBox="0 0 1000 1000" style="enable-background:new 0 0 1000 1000;" xml:space="preserve">
<style type="text/css">
	.st0{fill:#D1C4E9;}
</style>
<g>
	<path class="st0" d="M490,918.9c-97.6,0.3-195.2,0.7-292.8,1c-1.8,0-3.6-0.2-5.4-0.7c-1.3-0.3-2.5-0.7-3.8-0.8
		c-41.2-4.9-70.1-26.4-85.8-64.8c-3-7.4-4.6-15.5-6.7-23.3c-0.4-1.7-0.7-3.4-0.7-5.1c-0.2-41.8-0.3-83.7-0.4-125.5
		c0-11,8.9-20,20-19.9l27,0.2c10.9,0.1,19.6,8.9,19.6,19.8v100c-0.1,6.7,0.7,18.2,8.3,27.3c11.4,13.7,31.8,13.9,38.9,14
		c93.9,2.3,187.9,1.4,281.8,0.3"/>
	<path class="st0" d="M490.6,918.9c101.7-0.4,203.4-0.7,305.2-1.1c1.7,0,3.4-0.2,5-0.7c1.4-0.4,2.8-0.8,4.3-0.9
		c42.9-5.2,72.8-26.9,88.8-65.5c3.1-7.5,4.7-15.5,6.8-23.4c0.4-1.7,0.7-3.4,0.7-5.1c-0.2-42.1-0.3-84.2-0.4-126.3
		c0-10.6-8.7-19.2-19.4-19l-31.2,0.5c-10.5,0.2-18.9,8.7-18.8,19.2l0.7,100.7c0.2,6.7-0.6,18.2-8.4,27.3
		c-11.8,13.8-33,14.1-40.4,14.3c-97.8,3-195.6,2.7-293.4,2.3"/>
	<path class="st0" d="M518.2,643.4h-36.5c-14.1,0-25.6-11.5-25.6-25.6V230.6c0-14.1,11.5-25.6,25.6-25.6h36.5
		c14.1,0,25.6,11.5,25.6,25.6v387.3C543.8,632,532.4,643.4,518.2,643.4z"/>
	<path class="st0" d="M690.3,565H297.4c-1.9,0-2.8,2.3-1.5,3.6l192.6,187.9c0.8,0.8,2.1,0.8,2.9,0l200.2-187.9
		C693.2,567.3,692.2,565,690.3,565z"/>
</g>
</svg>
