<?xml version="1.0" encoding="utf-8"?>
<!-- Generator: Adobe Illustrator 23.0.0, SVG Export Plug-In . SVG Version: 6.00 Build 0)  -->
<svg version="1.1" id="Capa_1" xmlns="http://www.w3.org/2000/svg" xmlns:xlink="http://www.w3.org/1999/xlink" x="0px" y="0px"
	 viewBox="0 0 1366 768" style="enable-background:new 0 0 1366 768;" xml:space="preserve">
<style type="text/css">
	.st0{fill:#BAC0DB;}
	.st1{font-family:'CenturyGothic';}
	.st2{font-size:214.3645px;}
	.st3{font-size:49.9969px;}
</style>
<g>
	<text transform="matrix(1.1212 0 0 1 453.9294 291.7251)" class="st0 st1 st2">SEG</text>
	<g>
		<path class="st0" d="M540.19,480.28l30.23-26.76l18.45,16.33c2.36,2.09,6.28,2.09,8.25-0.35l41.23-41.01
			c1.96-2.09,1.96-4.87-0.39-6.95c-2.36-2.09-6.28-2.09-8.25,0.35l-36.51,36.49l-18.85-16.68c-2.36-2.09-5.89-2.09-8.25,0
			l-34.94,30.93c-2.36,2.09-2.36,5.21,0,7.3l0.39,0.35C534.3,482.36,538.23,482.36,540.19,480.28z"/>
		<path class="st0" d="M695.24,431.05v-6.77h-13.09v6.54h13.09V431.05z M662.29,440.75v29.56c0,1.81,1.58,3.38,3.38,3.38h46.03
			c1.81,0,3.38-1.58,3.38-3.38v-29.56c0-1.81-1.58-3.38-3.38-3.38h-46.03C663.87,437.59,662.29,438.95,662.29,440.75z M715.1,431.05
			c3.61,0,6.54,2.93,6.54,6.54v36.11c0,3.61-2.93,6.54-6.54,6.54h-52.8c-3.61,0-6.54-2.93-6.54-6.54v-36.11
			c0-3.61,2.93-6.54,6.54-6.54h13.09v-6.77c0-3.61,2.93-6.54,6.54-6.54h13.09c3.61,0,6.54,2.93,6.54,6.54v6.54h13.54
			C715.1,430.82,715.1,431.05,715.1,431.05z"/>
		<g>
			<path class="st0" d="M781.35,480.24c-8.21,0.03-16.43,0.06-24.64,0.09c-0.15,0-0.3-0.02-0.45-0.06
				c-0.11-0.03-0.21-0.06-0.32-0.07c-3.47-0.41-5.9-2.22-7.22-5.46c-0.26-0.63-0.39-1.3-0.56-1.96c-0.04-0.14-0.06-0.28-0.06-0.43
				c-0.01-3.52-0.03-7.04-0.04-10.56c0-0.93,0.75-1.68,1.68-1.67l2.27,0.02c0.92,0.01,1.65,0.75,1.65,1.67v8.41
				c-0.01,0.56,0.06,1.53,0.7,2.29c0.96,1.15,2.67,1.17,3.27,1.18c7.9,0.19,15.81,0.11,23.72,0.03"/>
			<path class="st0" d="M781.4,480.24c8.56-0.03,17.12-0.06,25.68-0.09c0.14,0,0.28-0.02,0.42-0.06c0.12-0.03,0.24-0.06,0.36-0.08
				c3.61-0.44,6.12-2.27,7.48-5.51c0.26-0.63,0.4-1.31,0.57-1.97c0.04-0.14,0.06-0.28,0.06-0.43c-0.01-3.54-0.02-7.08-0.04-10.62
				c0-0.89-0.74-1.61-1.63-1.6l-2.62,0.04c-0.88,0.01-1.59,0.73-1.58,1.62l0.06,8.47c0.01,0.56-0.05,1.53-0.71,2.3
				c-0.99,1.16-2.77,1.19-3.4,1.21c-8.23,0.25-16.46,0.23-24.69,0.2"/>
			<path class="st0" d="M783.73,457.06h-3.07c-1.19,0-2.15-0.96-2.15-2.15v-32.59c0-1.19,0.96-2.15,2.15-2.15h3.07
				c1.19,0,2.15,0.96,2.15,2.15v32.59C785.88,456.1,784.92,457.06,783.73,457.06z"/>
			<path class="st0" d="M798.21,450.46h-33.06c-0.16,0-0.24,0.19-0.12,0.31l16.21,15.81c0.07,0.07,0.18,0.07,0.25,0l16.85-15.81
				C798.45,450.65,798.37,450.46,798.21,450.46z"/>
		</g>
		<text transform="matrix(1.1212 0 0 1 517.8203 525.6699)" class="st0 st1 st3">BIENVENIDO</text>
	</g>
</g>
</svg>
